<?xml version="1.0" encoding="UTF-8"?>
<!-- Created with Inkscape (http://www.inkscape.org/) -->
<svg width="64" height="64" style="" version="1.1" viewBox="0 0 64 64" xmlns="http://www.w3.org/2000/svg">
 <path d="m26 4v10a18 18 0 0 1 18 18 18 18 0 0 1-18 18v10a28 28 0 0 0 28-28 28 28 0 0 0-28-28z" fill="#fff" fill-rule="evenodd"/>
 <circle cx="26" cy="32" r="14" fill="#1a9fff" fill-rule="evenodd"/>
 <path d="m26 22a2 2 0 0 0-1.4141 0.58594l-8 8a2.0002 2.0002 0 0 0 0 2.8281l8 8a2 2 0 0 0 2.8281 0 2 2 0 0 0 0-2.8281l-4.5859-4.5859h11.172a2 2 0 0 0 2-2 2 2 0 0 0-2-2h-11.172l4.5859-4.5859a2 2 0 0 0 0-2.8281 2 2 0 0 0-1.4141-0.58594z" fill="#fff" stroke-linecap="round" stroke-linejoin="round" stroke-miterlimit="0"/>
</svg>
