<?xml version="1.0" encoding="UTF-8" standalone="no"?>
<!-- Created with Inkscape (http://www.inkscape.org/) -->

<svg
   width="64"
   height="64"
   style=""
   version="1.1"
   viewBox="0 0 64 64"
   id="svg2"
   sodipodi:docname="steamdeck-gaming-return.svg"
   inkscape:version="1.3.2 (091e20ef0f, 2023-11-25)"
   xmlns:inkscape="http://www.inkscape.org/namespaces/inkscape"
   xmlns:sodipodi="http://sodipodi.sourceforge.net/DTD/sodipodi-0.dtd"
   xmlns="http://www.w3.org/2000/svg"
   xmlns:svg="http://www.w3.org/2000/svg">
  <defs
     id="defs2" />
  <sodipodi:namedview
     id="namedview2"
     pagecolor="#ffffff"
     bordercolor="#000000"
     borderopacity="0.25"
     inkscape:showpageshadow="2"
     inkscape:pageopacity="0.0"
     inkscape:pagecheckerboard="0"
     inkscape:deskcolor="#d1d1d1"
     showgrid="true"
     inkscape:zoom="5.7578125"
     inkscape:cx="9.6390773"
     inkscape:cy="22.49118"
     inkscape:window-width="1280"
     inkscape:window-height="987"
     inkscape:window-x="0"
     inkscape:window-y="0"
     inkscape:window-maximized="1"
     inkscape:current-layer="svg2" />
  <path
     d="m 25.5,4 v 10 a 18,18 0 0 1 18,18 18,18 0 0 1 -18,18 v 10 a 28,28 0 0 0 28,-28 28,28 0 0 0 -28,-28 z"
     fill="#ffffff"
     fill-rule="evenodd"
     id="path1" />
  <circle
     cx="25.5"
     cy="32"
     r="14"
     fill="#1a9fff"
     fill-rule="evenodd"
     id="circle1" />
  <path
     d="m 25.5,22 a 2,2 0 0 0 -1.4141,0.58594 l -8,8 a 2.0002,2.0002 0 0 0 0,2.8281 l 8,8 a 2,2 0 0 0 2.8281,0 2,2 0 0 0 0,-2.8281 l -4.5859,-4.5859 h 11.172 a 2,2 0 0 0 2,-2 2,2 0 0 0 -2,-2 h -11.172 l 4.5859,-4.5859 a 2,2 0 0 0 0,-2.8281 2,2 0 0 0 -1.4141,-0.58594 z"
     fill="#ffffff"
     stroke-linecap="round"
     stroke-linejoin="round"
     stroke-miterlimit="0"
     id="path2" />
</svg>
